<svg width="273" height="276" viewBox="0 0 273 276" fill="none" xmlns="http://www.w3.org/2000/svg">
<g clip-path="url(#clip0_13_410)">
<path d="M68.8654 264.853C68.5642 264.866 68.266 264.787 68.0112 264.625C67.7564 264.463 67.5574 264.227 67.4411 263.948C67.3247 263.668 67.2967 263.36 67.3609 263.064C67.425 262.769 67.5781 262.5 67.7996 262.294C67.8367 262.147 67.8633 262.04 67.9003 261.892C67.6121 261.158 67.1117 260.526 66.4632 260.078C65.8148 259.63 65.048 259.387 64.261 259.38C63.474 259.372 62.7027 259.601 62.046 260.036C61.3893 260.472 60.8771 261.094 60.5751 261.823C58.8321 265.917 56.5762 270.156 57.6981 274.665C50.2877 258.905 52.8078 239.3 63.7593 225.821C66.7865 224.148 69.24 221.175 69.8788 217.723C68.3806 218.232 66.5127 217.009 67.6391 215.425C68.1274 214.82 68.6204 214.22 69.1086 213.614C63.4176 207.532 56.6369 217.091 62.901 225.3C60.8519 227.879 59.0769 230.665 57.6051 233.613C57.945 230.482 57.5393 227.315 56.4214 224.372C55.2885 221.629 53.1649 219.319 51.2949 216.948C49.0212 214.059 44.3416 215.392 44.0356 219.058C46.134 219.75 46.4066 222.792 44.0063 223.208C44.635 230.029 49.0753 236.297 55.1908 239.288C52.9324 245.647 52.0505 252.416 52.604 259.144C51.5245 251.281 43.1138 249.373 37.2351 246.248C36.8609 246.007 36.4251 245.881 35.9806 245.884C35.5361 245.888 35.1023 246.021 34.732 246.268C34.3617 246.515 34.0711 246.864 33.8954 247.274C33.7197 247.684 33.6667 248.136 33.7428 248.576C34.5541 248.907 35.3307 249.318 36.0611 249.803C36.4034 250.034 36.6661 250.365 36.8132 250.752C36.9604 251.139 36.9847 251.561 36.883 251.963C36.7813 252.364 36.5585 252.723 36.2451 252.992C35.9317 253.261 35.543 253.426 35.1324 253.465C38.0957 260.825 45.7568 265.767 53.6253 265.739C54.3815 269.037 55.4771 272.246 56.8944 275.316H68.5728C68.6147 275.186 68.6523 275.052 68.69 274.921C67.609 274.99 66.5238 274.925 65.4586 274.728C68.3185 271.33 70.5303 269.597 68.8658 264.853L68.8654 264.853Z" fill="#ECECEC"/>
<path d="M172.981 264.853C173.282 264.866 173.58 264.787 173.835 264.625C174.09 264.463 174.289 264.227 174.405 263.948C174.521 263.668 174.549 263.36 174.485 263.064C174.421 262.769 174.268 262.5 174.047 262.294C174.009 262.147 173.983 262.04 173.946 261.892C174.234 261.158 174.734 260.526 175.383 260.078C176.031 259.63 176.798 259.387 177.585 259.38C178.372 259.372 179.143 259.601 179.8 260.036C180.457 260.472 180.969 261.094 181.271 261.823C183.014 265.917 185.27 270.156 184.148 274.665C191.558 258.905 189.038 239.3 178.087 225.821C175.06 224.148 172.606 221.175 171.967 217.723C173.465 218.232 175.333 217.009 174.207 215.425C173.719 214.82 173.226 214.22 172.737 213.614C178.428 207.532 185.209 217.091 178.945 225.3C180.994 227.879 182.769 230.665 184.241 233.613C183.901 230.482 184.307 227.315 185.425 224.372C186.558 221.629 188.681 219.319 190.551 216.948C192.825 214.059 197.504 215.392 197.81 219.058C195.712 219.75 195.439 222.792 197.84 223.208C197.211 230.029 192.771 236.297 186.655 239.288C188.914 245.647 189.796 252.416 189.242 259.144C190.322 251.281 198.732 249.373 204.611 246.248C204.985 246.007 205.421 245.881 205.865 245.884C206.31 245.888 206.744 246.021 207.114 246.268C207.484 246.515 207.775 246.864 207.951 247.274C208.126 247.684 208.179 248.136 208.103 248.576C207.292 248.907 206.515 249.318 205.785 249.803C205.443 250.034 205.18 250.365 205.033 250.752C204.886 251.139 204.861 251.561 204.963 251.963C205.065 252.364 205.288 252.723 205.601 252.992C205.914 253.261 206.303 253.426 206.714 253.465C203.75 260.825 196.089 265.767 188.221 265.739C187.465 269.037 186.369 272.246 184.952 275.316H173.273C173.231 275.186 173.194 275.052 173.156 274.921C174.237 274.99 175.322 274.925 176.388 274.728C173.528 271.33 171.316 269.596 172.981 264.853Z" fill="#ECECEC"/>
<path d="M177.311 266.593L172.281 267.741L165.474 248.82L172.897 247.125L177.311 266.593Z" fill="#FCDFBE"/>
<path d="M178.682 271.817L163.216 275.349L163.171 275.152C162.808 273.55 163.094 271.869 163.966 270.478C164.838 269.087 166.225 268.101 167.821 267.737L170.159 264.941L175.918 265.888L177.268 265.58L178.682 271.817Z" fill="#1E1E1E"/>
<path d="M258.442 174.365L261.207 178.735L245.728 191.517L241.647 185.068L258.442 174.365Z" fill="#FCDFBE"/>
<path d="M262.887 171.316L271.39 184.753L271.221 184.861C269.838 185.742 268.164 186.036 266.566 185.678C264.968 185.32 263.577 184.34 262.699 182.953L259.29 181.681L258.248 175.919L257.506 174.746L262.887 171.316Z" fill="#1E1E1E"/>
<path d="M98.1247 127.65L96.8826 120.425L115.768 111.867L119.846 104.621C119.714 103.985 119.76 103.325 119.979 102.714C120.198 102.102 120.58 101.564 121.085 101.157C121.589 100.75 122.196 100.491 122.838 100.409C123.48 100.327 124.132 100.424 124.723 100.69C125.313 100.956 125.818 101.381 126.183 101.918C126.548 102.454 126.758 103.081 126.79 103.73C126.822 104.379 126.675 105.023 126.364 105.593C126.054 106.163 125.593 106.636 125.031 106.959L118.322 117.368L98.1247 127.65Z" fill="#FCDFBE"/>
<path d="M92.384 121.744L100.889 117.384L103.14 125.867L97.2326 130.261L92.384 121.744Z" fill="#c40000"/>
<path d="M73.3003 265.936L78.4423 265.935L80.8886 246.031L73.2991 246.032L73.3003 265.936Z" fill="#FCDFBE"/>
<path d="M80.1534 266.4V262.902L78.8016 262.985L73.2987 263.312L72.0251 263.39L71.0514 275.107L70.9993 275.735H74.6505L74.7679 275.111L75.2981 272.276L76.6674 275.111L76.9673 275.735H86.6474C87.2234 275.731 87.7748 275.5 88.1817 275.09C88.5886 274.681 88.8183 274.127 88.8208 273.549C89.2293 271.634 81.1792 267.495 80.1534 266.4Z" fill="#1E1E1E"/>
<path d="M12.261 186.944L11.0623 191.963L29.7795 198.991L31.5485 191.585L12.261 186.944Z" fill="#FCDFBE"/>
<path d="M10.62 193.524L14.01 194.34L14.2448 193.001L15.2109 187.555L15.4318 186.294L4.30532 182.612L3.7088 182.414L2.85748 185.977L3.43456 186.237L6.0584 187.416L2.99167 188.091L2.31729 188.238L0.0602805 197.685C-0.0704814 198.248 0.0253411 198.84 0.326959 199.332C0.628577 199.825 1.11163 200.178 1.67121 200.315C3.43155 201.16 9.31985 194.27 10.62 193.524Z" fill="#1E1E1E"/>
<path d="M81.2511 137.117L74.6323 134.012L61.4331 150.042L53.3932 152.083C52.8166 151.788 52.17 151.658 51.5248 151.709C50.8796 151.76 50.2609 151.989 49.7371 152.37C49.2133 152.751 48.8047 153.271 48.5565 153.87C48.3083 154.47 48.2302 155.127 48.3307 155.769C48.4312 156.41 48.7065 157.012 49.1261 157.506C49.5457 158 50.0933 158.369 50.7085 158.571C51.3237 158.772 51.9824 158.799 52.612 158.649C53.2416 158.499 53.8175 158.176 54.2761 157.718L66.049 153.964L81.2511 137.117Z" fill="#FCDFBE"/>
<path d="M175.087 77.7776C173.684 77.7776 172.313 77.3601 171.146 76.5779C169.98 75.7957 169.071 74.6839 168.534 73.3831C167.997 72.0824 167.856 70.6511 168.13 69.2702C168.404 67.8893 169.079 66.6209 170.071 65.6253C171.063 64.6298 172.327 63.9518 173.703 63.6771C175.079 63.4025 176.506 63.5434 177.802 64.0822C179.098 64.621 180.206 65.5334 180.985 66.7041C181.765 67.8747 182.181 69.251 182.181 70.659C182.179 72.5463 181.431 74.3557 180.101 75.6903C178.771 77.0248 176.968 77.7755 175.087 77.7776ZM175.087 64.3573C173.845 64.3573 172.631 64.7269 171.599 65.4193C170.566 66.1117 169.761 67.0959 169.286 68.2474C168.81 69.3989 168.686 70.666 168.928 71.8884C169.171 73.1108 169.769 74.2336 170.647 75.1149C171.525 75.9962 172.644 76.5964 173.862 76.8396C175.08 77.0827 176.343 76.9579 177.49 76.481C178.638 76.004 179.618 75.1963 180.309 74.16C180.999 73.1237 181.367 71.9053 181.367 70.659C181.365 68.9882 180.703 67.3865 179.525 66.2051C178.348 65.0237 176.752 64.3592 175.087 64.3573Z" fill="#ECECEC"/>
<path d="M174.587 73.3408C174.573 73.3408 174.558 73.3403 174.544 73.3396C174.418 73.3335 174.295 73.3001 174.183 73.2418C174.071 73.1835 173.973 73.1015 173.896 73.0016L172.778 71.5599C172.708 71.4689 172.656 71.3649 172.625 71.2537C172.595 71.1425 172.586 71.0264 172.601 70.912C172.615 70.7976 172.652 70.6871 172.708 70.5869C172.765 70.4867 172.841 70.3986 172.932 70.3278L172.972 70.2964C173.063 70.2256 173.166 70.1734 173.277 70.1427C173.388 70.1121 173.504 70.1038 173.618 70.1181C173.732 70.1324 173.842 70.1691 173.942 70.2261C174.042 70.2831 174.129 70.3594 174.2 70.4504C174.256 70.5232 174.328 70.5828 174.409 70.6253C174.491 70.6677 174.581 70.692 174.672 70.6965C174.764 70.701 174.856 70.6856 174.941 70.6512C175.026 70.6169 175.103 70.5645 175.166 70.4977L177.435 68.0939C177.595 67.9251 177.815 67.8268 178.047 67.8205C178.278 67.8141 178.503 67.9004 178.672 68.0602L178.709 68.0958C178.793 68.1751 178.86 68.2701 178.907 68.3754C178.953 68.4807 178.979 68.5942 178.982 68.7094C178.985 68.8247 178.966 68.9395 178.925 69.0471C178.883 69.1548 178.822 69.2533 178.743 69.337L175.222 73.0665C175.14 73.1532 175.042 73.2222 174.932 73.2693C174.823 73.3165 174.706 73.3408 174.587 73.3408Z" fill="#ECECEC"/>
<path d="M139.676 163.964C138.273 163.964 136.901 163.546 135.735 162.764C134.568 161.982 133.659 160.87 133.122 159.569C132.585 158.268 132.445 156.837 132.718 155.456C132.992 154.075 133.668 152.807 134.66 151.811C135.652 150.816 136.916 150.138 138.292 149.863C139.668 149.588 141.094 149.729 142.39 150.268C143.686 150.807 144.794 151.719 145.574 152.89C146.353 154.061 146.769 155.437 146.769 156.845C146.767 158.732 146.019 160.542 144.689 161.876C143.359 163.211 141.556 163.961 139.676 163.964ZM139.676 150.543C138.434 150.543 137.22 150.913 136.187 151.605C135.154 152.298 134.349 153.282 133.874 154.433C133.399 155.585 133.274 156.852 133.517 158.074C133.759 159.297 134.357 160.42 135.235 161.301C136.114 162.182 137.232 162.782 138.451 163.026C139.669 163.269 140.931 163.144 142.079 162.667C143.226 162.19 144.207 161.382 144.897 160.346C145.587 159.31 145.955 158.091 145.955 156.845C145.953 155.174 145.291 153.572 144.114 152.391C142.937 151.21 141.34 150.545 139.676 150.543Z" fill="#ECECEC"/>
<path d="M139.175 159.527C139.161 159.527 139.147 159.526 139.132 159.526C139.006 159.519 138.883 159.486 138.771 159.428C138.66 159.369 138.562 159.288 138.484 159.188L137.367 157.746C137.296 157.655 137.244 157.551 137.214 157.44C137.183 157.329 137.175 157.212 137.189 157.098C137.203 156.984 137.24 156.873 137.297 156.773C137.354 156.673 137.429 156.585 137.52 156.514L137.56 156.482C137.651 156.412 137.755 156.359 137.866 156.329C137.976 156.298 138.092 156.29 138.206 156.304C138.32 156.318 138.43 156.355 138.53 156.412C138.63 156.469 138.718 156.545 138.788 156.636C138.845 156.709 138.916 156.769 138.998 156.811C139.079 156.854 139.169 156.878 139.261 156.883C139.352 156.887 139.444 156.872 139.529 156.837C139.615 156.803 139.691 156.751 139.755 156.684L142.023 154.28C142.183 154.111 142.403 154.013 142.635 154.006C142.867 154 143.092 154.086 143.26 154.246L143.298 154.282C143.381 154.361 143.448 154.456 143.495 154.561C143.542 154.667 143.567 154.78 143.571 154.895C143.574 155.011 143.554 155.125 143.513 155.233C143.472 155.341 143.41 155.439 143.331 155.523L139.81 159.253C139.728 159.339 139.63 159.408 139.521 159.455C139.412 159.502 139.294 159.527 139.175 159.527Z" fill="#ECECEC"/>
<path d="M61.933 67.9744C60.53 67.9744 59.1585 67.5569 57.992 66.7747C56.8254 65.9925 55.9162 64.8807 55.3793 63.58C54.8424 62.2792 54.7019 60.8479 54.9757 59.467C55.2494 58.0862 55.925 56.8178 56.917 55.8222C57.9091 54.8266 59.1731 54.1487 60.5491 53.874C61.9251 53.5993 63.3514 53.7403 64.6476 54.2791C65.9438 54.8179 67.0516 55.7303 67.8311 56.9009C68.6105 58.0716 69.0266 59.4479 69.0266 60.8558C69.0245 62.7431 68.2764 64.5526 66.9466 65.8871C65.6167 67.2217 63.8137 67.9723 61.933 67.9744ZM61.933 54.5541C60.691 54.5541 59.4769 54.9237 58.4442 55.6162C57.4116 56.3086 56.6067 57.2928 56.1314 58.4443C55.6561 59.5958 55.5318 60.8628 55.7741 62.0852C56.0164 63.3076 56.6145 64.4305 57.4927 65.3118C58.3709 66.1931 59.4898 66.7933 60.7079 67.0364C61.926 67.2796 63.1886 67.1548 64.336 66.6778C65.4835 66.2008 66.4642 65.3931 67.1542 64.3568C67.8442 63.3205 68.2125 62.1022 68.2125 60.8558C68.2106 59.1851 67.5484 57.5833 66.3712 56.4019C65.194 55.2206 63.5978 54.556 61.933 54.5541Z" fill="#ECECEC"/>
<path d="M61.4325 63.5376C61.4183 63.5376 61.404 63.5372 61.3897 63.5365C61.2638 63.5304 61.1407 63.497 61.0288 63.4387C60.9169 63.3803 60.8189 63.2984 60.7416 63.1985L59.6241 61.7568C59.5536 61.6658 59.5015 61.5618 59.471 61.4506C59.4406 61.3394 59.4322 61.2233 59.4464 61.1089C59.4607 60.9945 59.4972 60.884 59.554 60.7838C59.6108 60.6835 59.6867 60.5955 59.7775 60.5247L59.8177 60.4933C59.9083 60.4224 60.0121 60.3702 60.1229 60.3396C60.2337 60.309 60.3494 60.3006 60.4635 60.3149C60.5775 60.3292 60.6876 60.3659 60.7875 60.423C60.8874 60.48 60.9751 60.5562 61.0457 60.6473C61.1021 60.72 61.1735 60.7797 61.2551 60.8221C61.3366 60.8646 61.4263 60.8889 61.518 60.8934C61.6098 60.8979 61.7014 60.8824 61.7867 60.8481C61.8719 60.8138 61.9488 60.7614 62.012 60.6945L64.2808 58.2908C64.4405 58.122 64.6605 58.0236 64.8923 58.0173C65.1242 58.011 65.3491 58.0972 65.5178 58.2571L65.555 58.2927C65.6384 58.3719 65.7054 58.4669 65.7523 58.5722C65.7991 58.6775 65.8248 58.791 65.8279 58.9063C65.831 59.0216 65.8114 59.1363 65.7703 59.244C65.7292 59.3517 65.6674 59.4502 65.5883 59.5338L62.0674 63.2634C61.9857 63.35 61.8873 63.419 61.7781 63.4662C61.669 63.5133 61.5514 63.5376 61.4325 63.5376Z" fill="#ECECEC"/>
<path d="M118.725 190.431C102.275 190.431 83.3711 172.113 66.6455 180.817C16.0049 207.168 22.9759 163.073 8.42725 146.674L8.90488 145.712C24.9576 160.157 45 171.909 66.8654 179.698C86.6249 186.738 106.533 190 124.429 189.139L124.46 190.295C122.57 190.386 120.658 190.432 118.725 190.431Z" fill="#ECECEC"/>
<path d="M96.1602 66.581C98.0592 66.581 99.5986 64.5094 99.5986 61.9541C99.5986 59.3987 98.0592 57.3272 96.1602 57.3272C94.2613 57.3272 92.7219 59.3987 92.7219 61.9541C92.7219 64.5094 94.2613 66.581 96.1602 66.581Z" fill="#ECECEC"/>
<path d="M135.873 138.761C134.301 139.812 132.692 137.31 134.294 136.306C135.866 135.255 137.475 137.756 135.873 138.761Z" fill="#ECECEC"/>
<path d="M126.825 54.5422C129.298 54.5422 131.302 52.5306 131.302 50.0491C131.302 47.5677 129.298 45.556 126.825 45.556C124.352 45.556 122.348 47.5677 122.348 50.0491C122.348 52.5306 124.352 54.5422 126.825 54.5422Z" fill="#c40000"/>
<path opacity="0.3" d="M142.485 74.671L167.962 0L139.987 73.7771C139.848 73.9522 139.753 74.1579 139.71 74.3771C139.667 74.5964 139.676 74.8228 139.737 75.0376C139.799 75.2525 139.91 75.4495 140.063 75.6125C140.215 75.7755 140.404 75.8996 140.614 75.9747C140.824 76.0497 141.048 76.0735 141.269 76.044C141.49 76.0146 141.7 75.9327 141.883 75.8053C142.066 75.6778 142.216 75.5084 142.321 75.3112C142.425 75.1139 142.482 74.8944 142.485 74.671Z" fill="#ECECEC"/>
<path d="M116.769 165.642C119.175 165.642 121.125 163.685 121.125 161.27C121.125 158.856 119.175 156.899 116.769 156.899C114.363 156.899 112.413 158.856 112.413 161.27C112.413 163.685 114.363 165.642 116.769 165.642Z" fill="#ECECEC"/>
<path d="M74.5782 162.938C74.5782 162.938 63.7184 170.034 66.5899 174.75C66.689 174.912 53.618 192.237 53.618 192.237L28.9431 190.665L28.0737 198.953L50.0411 205.337C50.0411 205.337 55.4152 209.299 59.5668 204.934C63.7184 200.568 77.547 187.2 77.547 187.2L78.214 214.19L71.2721 251.59L81.6371 250.931L91.7255 213.409L95.4493 170.907L74.5782 162.938Z" fill="#1E1E1E"/>
<path d="M82.3137 120.348L77.747 123.821L72.5418 134.969L77.547 141.791C77.547 141.791 81.7573 149.114 75.0182 156.205C68.279 163.296 63.1041 170.87 68.4981 170.599C73.8921 170.329 95.7386 181.48 95.8823 172.344C96.0261 163.209 96.317 156.205 96.317 156.205L102.045 141.626C102.045 141.626 105.457 132.929 103.061 130.326C100.665 127.723 97.4575 124.396 97.4575 124.396L91.624 118.542H86.3566L82.3137 120.348Z" fill="#c40000"/>
<path d="M90.8386 98.9274C101.084 104.778 92.673 120.214 82.2369 114.717C71.9921 108.867 80.4028 93.4309 90.8386 98.9274Z" fill="#FCDFBE"/>
<path d="M96.3171 102.171C95.5992 103.108 94.0994 102.669 91.1623 103.338C91.1688 102.338 91.0538 101.342 90.8199 100.371C90.6013 101.574 90.1224 102.713 89.417 103.709C86.8666 103.993 89.993 111.768 88.6872 117.485C87.0047 105.425 83.466 108.585 85.2537 110.977C86.3982 112.508 85.6352 117.102 82.2018 114.805C76.5367 117.507 68.468 104.085 77.4106 97.7911C77.2509 94.3888 81.0232 93.8513 83.3463 94.8974C88.9839 90.6829 95.4248 96.0831 96.3171 102.171Z" fill="#1E1E1E"/>
<path d="M70.0302 93.3713C67.7493 107.445 55.5236 90.7831 49.7752 104.633C47.9678 109.648 51.0688 113.236 53.0303 117.399C53.478 120.821 49.0428 122.557 48.5782 125.706C48.4489 132.926 60.0564 132.484 63.3014 127.929C66.6356 123.16 62.6541 116.762 64.6582 111.644C67.4749 104.538 78.9301 104.485 79.9281 96.2175C77.9954 93.4556 72.7984 90.2923 70.0302 93.3713Z" fill="#1E1E1E"/>
<path d="M79.2704 94.7466C79.1958 94.7781 79.1212 94.8096 79.0544 94.8451H79.0505C78.9876 94.8766 78.9248 94.9081 78.862 94.9436C78.8541 94.9476 78.8502 94.9515 78.8423 94.9555C78.7598 94.8766 78.6774 94.7978 78.591 94.719C78.5686 94.8474 78.574 94.9791 78.6067 95.1052L78.6185 95.1525C78.697 95.2353 78.7795 95.3141 78.8659 95.3969C78.9445 95.3377 79.0191 95.2747 79.0976 95.2156C79.1448 95.1762 79.1919 95.1367 79.2429 95.0973C79.2508 94.9949 79.2626 94.8766 79.2743 94.7466L79.2704 94.7466ZM81.6347 90.364C79.8831 89.9619 79.3175 92.2597 79.1486 93.3671C78.5124 89.3471 75.8654 90.6123 76.7805 93.3553C77.0721 94.1674 77.5311 94.9087 78.1275 95.5309C78.21 95.6254 78.3003 95.72 78.3946 95.8146C78.2886 96.3664 78.8227 96.2245 79.5453 95.7161C80.0789 95.3353 80.5724 94.9008 81.0181 94.4194C82.4594 92.9021 83.5826 90.8724 81.6347 90.364ZM81.6897 92.6262C81.1493 93.3255 80.5429 93.9709 79.8792 94.5535C79.671 94.7426 79.4589 94.9239 79.2429 95.0973C79.239 95.1328 79.239 95.1643 79.2351 95.1919C79.2199 95.2302 79.2015 95.2671 79.1801 95.3023C78.9601 95.7003 78.7127 95.4836 78.6185 95.1525C78.6106 95.1407 78.5988 95.1288 78.591 95.117C78.2771 94.7917 78.0041 94.429 77.778 94.0372C76.156 91.2152 78.7677 89.2959 78.6381 94.5653C78.6142 94.6136 78.5983 94.6655 78.591 94.719C78.5686 94.8474 78.574 94.9791 78.6067 95.1052L78.6185 95.1525C78.697 95.2353 78.7795 95.3141 78.8659 95.3969C78.9445 95.3377 79.0191 95.2747 79.0976 95.2156C79.1448 95.1762 79.1919 95.1367 79.2429 95.0973C79.2508 94.9949 79.2626 94.8766 79.2743 94.7466V94.7426C79.3764 93.6864 79.6553 91.7867 80.1698 91.2704C81.3009 90.3994 82.7657 91.3414 81.6897 92.6262ZM79.2704 94.7466C79.1958 94.7781 79.1212 94.8096 79.0544 94.8451H79.0505C78.9876 94.8766 78.9248 94.9081 78.862 94.9436C78.8541 94.9476 78.8502 94.9515 78.8423 94.9555C78.7598 94.8766 78.6774 94.7978 78.591 94.719C78.5686 94.8474 78.574 94.9791 78.6067 95.1052L78.6185 95.1525C78.697 95.2353 78.7795 95.3141 78.8659 95.3969C78.9445 95.3377 79.0191 95.2747 79.0976 95.2156C79.1448 95.1762 79.1919 95.1367 79.2429 95.0973C79.2508 94.9949 79.2626 94.8766 79.2743 94.7466L79.2704 94.7466Z" fill="#1E1E1E"/>
<path d="M173.963 172.338L170.179 182.241L152.429 217.377L168.026 258.251L176.075 256.119L169.441 217.377L188.475 194.168L211.08 209.554C211.08 209.554 221.105 217.408 224.919 209.962C228.733 202.516 253.411 186.68 253.411 186.68L247.306 180.144L218.887 193.49L199.273 165.785L173.963 172.338Z" fill="#1E1E1E"/>
<path d="M193.055 125.629L186.827 118.913L176.142 117.438L163.051 126.635L163.182 136.816L169.654 160.804C169.654 160.804 167.189 178.039 174.074 177.866C180.96 177.693 184.713 174.249 187.517 174.95C190.322 175.651 202.243 178.635 202.998 175.509C203.753 172.383 207.769 174.622 207.593 171.664C207.417 168.707 196.722 147.391 196.722 147.391L199.381 126.072L193.055 125.629Z" fill="#c40000"/>
<path d="M232.493 94.7158C232.549 95.2727 232.482 95.8352 232.298 96.3634C232.114 96.8917 231.816 97.373 231.426 97.7735C231.037 98.1739 230.564 98.4837 230.042 98.6811C229.52 98.8785 228.962 98.9587 228.405 98.9159L214.082 126.253L210.236 120.329L224.877 94.5285C225.01 93.5957 225.48 92.7444 226.197 92.136C226.915 91.5276 227.829 91.2043 228.768 91.2274C229.707 91.2505 230.604 91.6184 231.291 92.2613C231.978 92.9042 232.405 93.7776 232.493 94.7158Z" fill="#FCDFBE"/>
<path d="M187.4 130.712C187.4 130.712 186.832 135.574 192.287 136.778C197.742 137.982 212.856 129.316 215.333 127.992C216.109 127.578 217.162 125.546 218.242 122.951C218.727 121.786 219.217 120.507 219.691 119.21C219.965 118.459 221.277 118.254 221.535 117.51C221.792 116.77 220.995 115.49 221.227 114.792C222.331 111.48 223.113 108.853 223.113 108.853L219.497 102.038C214.441 104.72 211.847 110.629 209.94 117.437L187.4 130.712Z" fill="#c40000"/>
<path d="M123.692 100.994C123.777 101.547 123.982 102.075 124.292 102.54C124.602 103.005 125.01 103.396 125.487 103.686C125.965 103.976 126.499 104.157 127.054 104.217C127.608 104.277 128.169 104.215 128.697 104.033L149.382 126.903L151.628 120.202L131.019 98.8995C130.657 98.0299 129.99 97.3237 129.144 96.9148C128.298 96.5058 127.332 96.4225 126.429 96.6807C125.526 96.9388 124.748 97.5204 124.244 98.3153C123.739 99.1102 123.543 100.063 123.692 100.994Z" fill="#FCDFBE"/>
<path d="M176.326 124.519C176.326 124.519 178.089 129.085 173.108 131.62C168.126 134.156 151.333 129.561 148.604 128.902C147.75 128.695 146.224 126.993 144.531 124.751C143.771 123.745 142.977 122.63 142.195 121.493C141.743 120.835 140.421 120.966 139.986 120.31C139.553 119.658 140.005 118.219 139.606 117.602C137.712 114.673 136.299 112.325 136.299 112.325L138.1 104.819C143.665 106.146 147.649 111.216 151.194 117.328L176.326 124.519Z" fill="#c40000"/>
<path d="M181.698 115.73C187.312 115.73 191.864 111.162 191.864 105.528C191.864 99.8935 187.312 95.326 181.698 95.326C176.083 95.326 171.532 99.8935 171.532 105.528C171.532 111.162 176.083 115.73 181.698 115.73Z" fill="#FCDFBE"/>
<path d="M193.302 99.6865C192.233 98.0263 190.226 96.9198 188.281 97.2307C188.1 95.9849 187.581 94.8127 186.782 93.8419C185.984 92.8711 184.935 92.1389 183.75 91.7249C182.565 91.311 181.289 91.2312 180.062 91.4943C178.835 91.7574 177.704 92.3532 176.791 93.217C176.491 93.0049 176.141 92.8741 175.776 92.8375C175.411 92.8008 175.042 92.8594 174.706 93.0076C174.036 93.3131 173.454 93.7823 173.012 94.3722C171.895 95.7692 171.177 97.4438 170.934 99.2178C170.691 100.992 170.932 102.799 171.631 104.446C171.393 103.579 172.259 102.763 173.135 102.568C174.01 102.374 174.928 102.558 175.815 102.431C176.953 102.269 177.975 101.606 179.114 101.457C180.08 101.394 181.05 101.519 181.968 101.825C182.887 102.131 183.855 102.262 184.821 102.21C185.78 102.096 187.015 105.742 186.999 108.311C186.996 108.797 187.095 109.422 187.569 109.526C188.153 109.653 188.491 108.844 189.047 108.624C189.303 108.55 189.578 108.579 189.813 108.705C190.048 108.83 190.225 109.043 190.308 109.297C190.378 109.555 190.385 109.827 190.33 110.089C190.274 110.351 190.157 110.595 189.988 110.803C189.646 111.214 189.241 111.567 188.787 111.848L189.016 112.039C189.233 112.269 189.524 112.417 189.837 112.456C190.151 112.495 190.468 112.423 190.735 112.253C191.259 111.897 191.684 111.411 191.969 110.843C193.041 109.179 193.808 107.335 194.232 105.4C194.591 103.456 194.371 101.347 193.302 99.6865Z" fill="#1E1E1E"/>
<path d="M268.51 139.923C255.398 149.89 229.307 146.741 221.21 163.813C196.696 215.502 175.723 176.127 154.259 171.869L154.061 170.814C175.548 172.602 198.596 169.827 220.713 162.788C240.7 156.428 258.532 146.966 272.28 135.437L273 136.339C271.548 137.557 270.052 138.752 268.51 139.923Z" fill="#ECECEC"/>
<path d="M213.07 275.303C212.758 276.232 34.449 276.232 34.1121 275.306C34.424 274.375 212.733 274.375 213.07 275.303Z" fill="#ECECEC"/>
</g>
<defs>
<clipPath id="clip0_13_410">
<rect width="273" height="276" fill="white"/>
</clipPath>
</defs>
</svg>
